<?xml version="1.0" standalone="no"?>
<!DOCTYPE svg PUBLIC "-//W3C//DTD SVG 20010904//EN"
 "http://www.w3.org/TR/2001/REC-SVG-20010904/DTD/svg10.dtd">
<svg version="1.0" xmlns="http://www.w3.org/2000/svg"
 width="512.000000pt" height="512.000000pt" viewBox="0 0 512.000000 512.000000"
 preserveAspectRatio="xMidYMid meet">
<metadata>
Created by potrace 1.11, written by Peter Selinger 2001-2013
</metadata>
<g transform="translate(0.000000,512.000000) scale(0.100000,-0.100000)"
fill="#000000" stroke="none">
<path d="M2310 5014 c-589 -72 -1085 -309 -1486 -709 -372 -371 -600 -811
-696 -1342 -20 -114 -23 -159 -23 -408 0 -249 3 -294 23 -408 96 -529 323
-969 692 -1337 368 -369 808 -596 1337 -692 114 -20 159 -23 408 -23 249 0
294 3 408 23 529 96 969 323 1337 692 369 368 596 808 692 1337 20 114 23 159
23 408 0 249 -3 294 -23 408 -96 529 -323 969 -692 1337 -367 368 -809 597
-1331 691 -103 18 -167 22 -379 24 -140 2 -271 1 -290 -1z"/>
</g>
</svg>
